<svg width="14" height="4" viewBox="0 0 14 4" fill="none" xmlns="http://www.w3.org/2000/svg">
<path d="M1.49396 3.11364C2.19709 3.11364 2.77237 2.53835 2.77237 1.83523C2.77237 1.1321 2.19709 0.556818 1.49396 0.556818C0.790838 0.556818 0.215554 1.1321 0.215554 1.83523C0.215554 2.53835 0.790838 3.11364 1.49396 3.11364ZM7.00178 3.11364C7.7049 3.11364 8.28018 2.53835 8.28018 1.83523C8.28018 1.1321 7.7049 0.556818 7.00178 0.556818C6.29865 0.556818 5.72337 1.1321 5.72337 1.83523C5.72337 2.53835 6.29865 3.11364 7.00178 3.11364ZM12.5096 3.11364C13.2127 3.11364 13.788 2.53835 13.788 1.83523C13.788 1.1321 13.2127 0.556818 12.5096 0.556818C11.8065 0.556818 11.2312 1.1321 11.2312 1.83523C11.2312 2.53835 11.8065 3.11364 12.5096 3.11364Z" fill="#72787D"/>
</svg>
